<?xml version="1.0"?>
<svg xmlns="http://www.w3.org/2000/svg" xmlns:xlink="http://www.w3.org/1999/xlink" xmlns:svgjs="http://svgjs.com/svgjs" version="1.1" width="512" height="512" x="0" y="0" viewBox="0 0 512 512" style="enable-background:new 0 0 512 512" xml:space="preserve" class=""><g><g xmlns="http://www.w3.org/2000/svg"><g><g><g><g><g id="XMLID_1627_"><g id="XMLID_1628_"><g id="XMLID_1629_"><g id="XMLID_1630_"><g id="XMLID_1631_"><g id="XMLID_1632_"><g id="XMLID_1633_"><g id="XMLID_1634_"><g id="XMLID_1635_"><g id="XMLID_1636_"><g id="XMLID_1637_"><g id="XMLID_1638_"><g id="XMLID_1639_"><g id="XMLID_1640_"><g><path d="m512 256c0 141.38-114.62 256-256 256-1.12 0-2.23-.01-3.35-.02-1.38-.02-2.77-.05-4.14-.09-137.92-3.96-248.51-117.02-248.51-255.89 0-141.38 114.62-256 256-256 119.09 0 219.2 81.33 247.79 191.48.15.57.3 1.14.44 1.71 5.08 20.1 7.77 41.14 7.77 62.81z" fill="#07af49" data-original="#ffe45f" style="" class=""/></g></g></g></g></g></g></g></g></g></g></g></g></g></g></g></g></g></g></g><path d="m512 256c0 141.38-114.62 256-256 256-1.12 0-2.23-.01-3.35-.02-1.38-.02-2.77-.05-4.14-.09l-65.77-65.77s-2.59-4.77-3.9-13.88l-33.41-32.68-7.29-183.22-75.06-73.58 83.42-35.51 108.08 109.17 196.786-80.188 52.424 55.248c.15.57.3 1.14.44 1.71 5.08 20.1 7.77 41.14 7.77 62.81z" fill="#06893a" data-original="#ffca45" style="" class=""/><path d="m397.438 381.806h-247.144l-15.379-189.16h310.008z" fill="#6c2ac4" data-original="#6c2ac4" style=""/><path d="m444.921 192.646-43.027 171.397-.02.081-4.435 17.677h-111.352v-189.155z" fill="#3c1784" data-original="#3c1784" style=""/><g><path d="m394.18 399.564h-248.754l-30.477-256.799h-51.872v-35.517h83.423l30.477 242.082h228.613z" fill="#c7c7c7" data-original="#ff6cce" style="" class=""/></g><g><path d="m405.59 349.33-11.408 50.23h-108.095v-50.23z" fill="#999999" data-original="#e020aa" style="" class=""/></g><g><circle cx="205.952" cy="418.15" fill="#474d54" r="36.348" data-original="#474d54" style=""/><circle cx="343.267" cy="418.15" fill="#282e33" r="36.348" data-original="#282e33" style="" class=""/></g><ellipse cx="392.527" cy="189.266" fill="#57e5a8" rx="79.211" ry="79.211" transform="matrix(.16 -.987 .987 .16 142.829 546.407)" data-original="#57e5a8" style="" class=""/><path d="m471.74 189.268c0 43.749-35.464 79.214-79.213 79.214v-158.428c43.748 0 79.213 35.464 79.213 79.214z" fill="#2dba7a" data-original="#2dba7a" style=""/><path d="m438.444 172.829h-29.481v-29.48h-32.872v29.48h-29.481v32.873h29.481v29.481h32.872v-29.481h29.481z" fill="#ffffff" data-original="#ffffff" style=""/><path d="m408.963 143.349h-16.437v91.834h16.437v-29.481h29.481v-32.873h-29.481z" fill="#c0fffa" data-original="#c0fffa" style="" class=""/></g></g></svg>
