<?xml version="1.0"?>
<svg xmlns="http://www.w3.org/2000/svg" xmlns:xlink="http://www.w3.org/1999/xlink" xmlns:svgjs="http://svgjs.com/svgjs" version="1.1" width="512" height="512" x="0" y="0" viewBox="0 0 512 512" style="enable-background:new 0 0 512 512" xml:space="preserve" class=""><g>
<g xmlns="http://www.w3.org/2000/svg">
	<g>
		<g>
			<g>
				<g>
					<g>
						<g>
							<g>
								<g>
									<circle style="" cx="256" cy="256" r="256" fill="#07af49" data-original="#555a66" class=""/>
								</g>
							</g>
						</g>
					</g>
				</g>
			</g>
		</g>
	</g>
	<path style="" d="M511.805,265.541L356.744,110.48L226.738,306.603l-23.269,134.282l70.479,70.479   C403.816,502.368,507.003,396.521,511.805,265.541z" fill="#06893a" data-original="#333940" class=""/>
	<g>
		<polygon style="" points="366.033,278.319 97.471,172.322 203.469,440.885 238.733,359.172 311.264,431.703     356.852,386.114 284.321,313.584   " fill="#ffffff" data-original="#ffffff" class=""/>
	</g>
	<g>
		<polygon style="" points="356.852,386.114 284.321,313.584 366.033,278.319 97.471,172.322 97.471,172.322     333.686,409.281   " fill="#dce1eb" data-original="#dce1eb"/>
	</g>
	<g>
		<circle style="" cx="282.791" cy="180.551" r="101.88" fill="#65b1fc" data-original="#65b1fc" class=""/>
	</g>
	<g>
		<path style="" d="M282.791,78.671c-0.033,0-0.067,0.001-0.101,0.001V282.43c0.034,0,0.067,0.001,0.101,0.001    c56.267,0,101.88-45.613,101.88-101.88C384.671,124.284,339.058,78.671,282.791,78.671z" fill="#5c8eff" data-original="#5c8eff"/>
	</g>
	<g>
		<path style="" d="M297.791,217.843h-30v-0.177c0-20.584,10.407-40.053,27.839-52.081    c6.43-4.437,10.091-11.75,9.794-19.562c-0.446-11.742-9.993-21.29-21.735-21.736c-6.243-0.242-12.13,2.005-16.604,6.313    c-4.479,4.311-6.944,10.107-6.944,16.32h-30c0-14.442,5.731-27.914,16.137-37.932c10.402-10.015,24.077-15.227,38.55-14.679    c27.322,1.038,49.537,23.253,50.575,50.575c0.688,18.125-7.811,35.094-22.734,45.393c-9.315,6.427-14.877,16.666-14.877,27.389    V217.843z" fill="#ffffff" data-original="#ffffff" class=""/>
	</g>
	<g>
		<path style="" d="M335.402,144.885c-1.038-27.322-23.253-49.538-50.575-50.575c-0.715-0.027-1.426-0.029-2.137-0.028    v29.992c0.332-0.001,0.664,0.001,0.998,0.014c11.742,0.446,21.289,9.993,21.735,21.736c0.297,7.812-3.364,15.125-9.794,19.562    c-4.891,3.375-9.229,7.336-12.939,11.743v40.515h15.101v-0.177c0-10.723,5.562-20.961,14.877-27.389    C327.592,179.979,336.091,163.01,335.402,144.885z" fill="#dce1eb" data-original="#dce1eb"/>
	</g>
	<g>
		<rect x="267.791" y="235.355" style="" width="30" height="23.933" fill="#ffffff" data-original="#ffffff" class=""/>
	</g>
	<g>
		<rect x="282.69" y="235.355" style="" width="15.101" height="23.933" fill="#dce1eb" data-original="#dce1eb"/>
	</g>
</g>















</g></svg>
